<svg width="120" height="30" viewBox="0 0 120 30" fill="none" xmlns="http://www.w3.org/2000/svg">
<path d="M81 15.3978C81 17.5409 80.62 19.5585 79.8483 21.2797C79.1596 22.887 78.1741 24.2777 76.8918 25.4746C72.2612 29.7492 65.3628 30 63.9024 30H49.5V0.750093H63.6412C64.4129 0.750093 71.9169 0.670299 76.8443 5.19571C78.1266 6.39261 79.1596 7.78329 79.8483 9.39055C80.62 11.1574 81 13.175 81 15.3978ZM76.2863 15.3978C76.2863 13.7906 76.0251 12.3543 75.467 11.1574C75.0396 10.1315 74.3984 9.18537 73.5792 8.44443C71.6913 6.71178 69.1623 5.93665 67.3219 5.60608C65.3034 5.22991 63.8074 5.27551 63.7599 5.27551H55.0567V25.4746H63.7599C63.9261 25.4746 70.0171 25.5544 73.6148 22.2259C74.434 21.4393 75.0752 20.5388 75.5026 19.5471C76.0251 18.3616 76.2863 16.9595 76.2863 15.3978Z" fill="#8A3FFC"/>
<path d="M114.424 0V6.20491V15.6792V16.0821C114.424 16.1051 114.424 16.1397 114.424 16.1627C114.424 17.0491 114.4 17.9355 114.258 18.7989C114.151 19.3975 113.985 19.9846 113.759 20.5487C113.736 20.5948 113.724 20.6408 113.7 20.6869C113.581 20.9747 113.451 21.2625 113.308 21.5388C112.953 22.1834 112.537 22.8051 112.003 23.3116C111.28 24.0368 110.425 24.6009 109.429 24.9808C108.385 25.3837 107.163 25.5909 105.822 25.6025H102.666C101.314 25.6025 100.103 25.3837 99.0593 24.9808C98.0627 24.6009 97.2085 24.0368 96.4848 23.3116C95.9627 22.8051 95.5475 22.1834 95.1797 21.5388C95.0373 21.2625 94.9068 20.9862 94.7881 20.6869C94.7644 20.6408 94.7525 20.5948 94.7288 20.5372C94.5153 19.9731 94.3373 19.386 94.2305 18.7874C94.0881 17.924 94.0644 17.0376 94.0644 16.1512C94.0644 16.1282 94.0644 16.0936 94.0644 16.0706V15.6792V6.20491V0H88.5V14.6662C88.5 16.2893 88.5 17.9125 88.761 19.4896C89.022 20.9862 89.5322 22.4367 90.2203 23.726C90.778 24.7276 91.4186 25.683 92.2373 26.4658C93.3525 27.5825 94.6814 28.4574 96.2237 29.0445C97.8491 29.6662 99.7237 30 101.812 30H106.688C108.776 30 110.651 29.6662 112.276 29.0445C113.819 28.4574 115.147 27.594 116.263 26.4658C117.081 25.6715 117.722 24.716 118.28 23.726C118.968 22.4367 119.478 20.9862 119.739 19.4896C120 17.9125 120 16.2893 120 14.6662V0H114.424Z" fill="#8A3FFC"/>
<path d="M35.8883 30H42L20.9749 0L0 30H6.07336L11.3119 22.5253H30.6498L35.8883 30ZM14.4857 17.9798L20.9749 8.72054L27.4642 17.9798H14.4857Z" fill="#8A3FFC"/>
</svg>
